<?xml version="1.0" standalone="no"?>
<!DOCTYPE svg PUBLIC "-//W3C//DTD SVG 20010904//EN"
 "http://www.w3.org/TR/2001/REC-SVG-20010904/DTD/svg10.dtd">
<svg version="1.0" xmlns="http://www.w3.org/2000/svg"
 width="600.000000pt" height="600.000000pt" viewBox="0 0 600.000000 600.000000"
 preserveAspectRatio="xMidYMid meet">
<metadata>
Created by potrace 1.11, written by Peter Selinger 2001-2013
</metadata>
<g transform="translate(0.000000,600.000000) scale(0.100000,-0.100000)"
fill="#000000" stroke="none">
<path d="M2157 5534 c-11 -11 -8 -52 4 -59 5 -4 21 -4 35 -1 20 5 25 12 22 34
-2 20 -9 28 -28 30 -14 2 -29 0 -33 -4z"/>
<path d="M2355 5520 c-3 -11 -12 -20 -20 -20 -8 0 -17 -10 -21 -22 l-7 -23 -8
23 c-11 29 -59 31 -66 3 -3 -11 -13 -21 -24 -24 -10 -3 -19 -12 -19 -21 0 -9
-7 -16 -15 -16 -9 0 -19 -10 -24 -22 l-8 -23 -7 23 c-10 29 -56 31 -63 2 -4
-15 -14 -20 -39 -20 -36 0 -55 -20 -47 -51 4 -14 15 -19 40 -19 26 0 36 -5 40
-20 3 -11 13 -20 22 -20 14 -1 14 -2 -1 -14 -10 -7 -18 -18 -18 -24 0 -6 -9
-13 -19 -17 -24 -7 -31 -33 -31 -123 0 -77 11 -112 35 -112 10 0 15 -11 15
-35 0 -24 6 -37 20 -45 14 -8 20 -21 20 -45 0 -21 5 -35 13 -35 6 0 30 -20 52
-45 35 -40 44 -45 82 -45 38 0 47 -6 101 -60 l60 -60 71 0 71 0 0 -36 c0 -27
5 -37 20 -41 17 -5 20 -14 20 -60 0 -46 3 -56 20 -60 19 -5 20 -14 20 -173 0
-160 -1 -169 -20 -175 -18 -6 -20 -15 -20 -105 0 -89 -2 -98 -20 -103 -15 -4
-20 -14 -20 -40 0 -26 -5 -36 -20 -40 -15 -4 -20 -14 -20 -40 0 -26 -5 -36
-20 -40 -11 -3 -20 -12 -20 -21 0 -9 -5 -16 -11 -16 -21 0 -79 -71 -79 -96 0
-14 -7 -27 -15 -30 -8 -3 -17 -14 -20 -24 -3 -10 -15 -20 -25 -23 -11 -3 -20
-12 -20 -20 0 -8 -9 -17 -20 -20 -15 -4 -20 -14 -20 -40 0 -26 -5 -36 -20 -40
-11 -3 -20 -12 -20 -20 0 -8 -9 -17 -20 -20 -11 -3 -20 -12 -20 -20 0 -8 -9
-17 -20 -20 -11 -3 -20 -12 -20 -20 0 -8 -9 -17 -20 -20 -15 -4 -20 -14 -20
-40 0 -27 -5 -37 -20 -42 -15 -5 -20 -15 -20 -42 0 -26 -5 -36 -20 -40 -11 -3
-20 -12 -20 -20 0 -8 -9 -17 -20 -20 -10 -3 -22 -14 -25 -24 -4 -10 -12 -19
-20 -19 -15 0 -25 -22 -25 -56 0 -15 -6 -24 -15 -24 -8 0 -15 -5 -15 -10 0 -6
-11 -20 -25 -32 -15 -13 -25 -32 -25 -47 0 -15 -8 -31 -20 -39 -13 -8 -20 -23
-20 -42 0 -19 -7 -33 -20 -40 -14 -7 -20 -21 -20 -44 0 -25 -5 -35 -20 -39
-15 -4 -20 -14 -20 -41 0 -26 -4 -36 -16 -36 -9 0 -18 -9 -21 -19 -3 -11 -13
-21 -24 -24 -16 -4 -19 -14 -19 -61 0 -44 -3 -56 -15 -56 -19 0 -35 -40 -35
-86 0 -19 -4 -34 -10 -34 -6 0 -10 -38 -10 -94 0 -86 2 -97 24 -120 20 -23 32
-26 86 -26 53 0 63 3 67 20 3 11 12 20 20 20 8 0 17 9 20 20 3 11 12 20 20 20
8 0 17 9 20 19 3 11 13 21 24 24 14 4 19 14 19 40 0 26 5 37 19 42 10 3 21 15
24 25 3 11 12 20 21 20 12 0 16 10 16 36 0 27 5 37 19 41 11 3 21 13 24 24 3
10 12 19 20 19 9 0 19 9 22 20 3 11 12 20 20 20 8 0 17 9 20 20 3 11 12 20 20
20 15 0 25 22 25 53 0 12 9 28 20 35 11 7 20 23 20 37 0 16 14 39 40 64 30 29
40 47 40 70 0 22 5 31 16 31 9 0 18 9 21 19 3 11 13 21 24 24 14 4 19 14 19
41 0 26 4 36 16 36 9 0 18 9 21 20 3 11 11 20 19 20 7 0 18 8 23 18 8 12 10
-3 11 -60 0 -65 -3 -81 -20 -98 -18 -18 -20 -33 -20 -168 0 -136 -1 -148 -20
-160 -19 -11 -20 -23 -20 -206 0 -202 3 -226 26 -226 10 0 14 -14 14 -47 0
-53 6 -66 33 -76 9 -3 17 -13 17 -21 0 -7 9 -16 20 -19 17 -4 20 -14 20 -62 0
-48 3 -58 20 -62 15 -4 20 -14 20 -40 0 -26 5 -36 20 -40 11 -3 20 -12 20 -20
0 -8 9 -17 20 -20 15 -4 20 -14 20 -40 0 -26 5 -36 20 -40 11 -3 20 -12 20
-20 0 -8 9 -17 20 -20 11 -3 20 -11 20 -19 0 -7 9 -18 20 -24 13 -7 20 -21 20
-40 0 -19 7 -34 20 -42 17 -11 20 -24 20 -75 0 -47 -4 -63 -14 -63 -20 0 -26
-23 -26 -96 l0 -64 -30 0 c-19 0 -34 -7 -42 -20 -12 -18 -24 -20 -120 -20 -84
0 -110 -3 -122 -16 -9 -8 -16 -20 -16 -25 0 -5 -43 -9 -96 -9 -87 0 -96 -2
-101 -20 -4 -14 -14 -20 -35 -20 -46 0 -88 -48 -88 -100 0 -33 4 -43 19 -47
11 -3 21 -13 24 -24 4 -14 14 -19 40 -19 26 0 36 -5 40 -20 4 -15 14 -20 40
-20 26 0 36 -5 40 -20 5 -18 14 -20 82 -20 68 0 77 -2 82 -20 7 -28 59 -28 68
0 5 17 15 20 70 20 54 0 63 -3 68 -20 5 -18 14 -20 76 -20 61 0 71 3 71 18 1
16 1 16 14 0 18 -25 63 -23 71 2 8 25 45 26 52 2 4 -17 20 -20 161 -26 87 -3
158 -11 160 -16 5 -14 452 -13 452 0 0 6 15 10 34 10 45 0 86 16 86 34 0 7 9
16 20 19 12 3 20 14 20 26 0 11 -9 26 -20 33 -15 10 -20 24 -20 55 0 50 -8 73
-25 73 -8 0 -17 9 -20 20 -3 11 -12 20 -20 20 -8 0 -16 9 -20 19 -4 14 -17 21
-43 23 l-37 3 -3 57 c-2 46 -7 58 -22 63 -29 9 -28 80 0 95 18 10 20 21 20
125 0 64 4 115 9 115 19 0 41 32 41 61 0 18 5 29 14 29 18 0 26 22 26 76 0 31
4 44 14 44 20 0 26 23 26 93 0 52 3 64 20 75 20 12 20 21 18 240 l-3 227 -31
10 c-26 8 -29 12 -18 23 9 8 14 34 14 67 0 44 -4 57 -20 67 -15 10 -20 24 -20
55 0 51 -8 73 -26 73 -9 0 -14 12 -14 38 0 54 -9 80 -31 85 -14 4 -19 14 -19
40 0 27 -5 37 -21 42 -27 9 -22 49 8 53 14 2 23 -3 28 -17 3 -12 13 -21 22
-21 8 0 17 -9 20 -20 3 -11 12 -20 20 -20 8 0 17 -9 20 -20 3 -10 14 -22 24
-25 10 -4 19 -12 19 -20 0 -8 9 -17 20 -20 15 -5 20 -15 20 -40 0 -34 13 -45
55 -45 14 0 25 -7 28 -20 3 -11 12 -20 20 -20 9 0 19 -9 22 -20 3 -11 12 -20
20 -20 8 0 17 -9 20 -20 3 -11 12 -20 20 -20 8 0 17 -9 20 -20 3 -11 12 -20
20 -20 8 0 17 -9 20 -20 3 -11 13 -20 22 -20 8 0 17 -9 20 -20 4 -15 14 -20
40 -20 26 0 36 -5 40 -20 3 -11 12 -20 20 -20 8 0 17 -9 20 -20 3 -10 14 -22
24 -25 10 -4 19 -12 19 -20 0 -14 21 -25 51 -25 11 0 36 -18 56 -40 31 -33 44
-40 75 -40 67 0 76 66 9 72 -34 3 -36 5 -39 40 -3 34 -6 38 -39 44 -20 4 -44
15 -54 25 -11 11 -30 19 -44 19 -21 0 -25 5 -25 29 0 19 -8 35 -21 45 -21 14
-20 15 17 18 37 3 39 5 44 43 4 33 6 36 12 18 3 -13 13 -23 21 -23 8 0 17 -9
20 -20 3 -11 12 -20 20 -20 8 0 17 -9 20 -20 3 -11 12 -20 20 -20 9 0 19 -9
22 -20 3 -11 13 -20 21 -20 9 0 14 -10 14 -29 0 -31 60 -101 86 -101 35 0 46
80 14 107 -11 10 -20 27 -20 40 0 22 -59 93 -78 93 -5 0 -12 9 -15 20 -3 11
-12 20 -20 20 -8 0 -17 9 -20 20 -3 11 -12 20 -20 20 -8 0 -17 9 -20 20 -3 11
-12 20 -20 20 -8 0 -17 9 -20 20 -3 11 -12 20 -21 20 -11 0 -16 9 -16 31 0 25
-17 47 -100 130 -57 56 -100 108 -100 119 0 20 -61 90 -79 90 -6 0 -11 5 -11
10 0 6 -63 74 -140 151 -87 87 -140 149 -140 161 0 12 -41 60 -105 123 -87 86
-105 108 -105 133 0 23 -6 32 -22 38 l-23 7 23 8 c28 11 31 55 3 64 -24 7 -51
-3 -51 -21 0 -8 -10 -3 -25 12 -30 30 -32 60 -5 67 16 4 20 14 20 52 0 38 -4
48 -19 52 -11 3 -21 13 -24 24 -3 10 -12 19 -21 19 -12 0 -16 10 -16 35 0 24
-6 37 -20 45 -17 9 -20 21 -20 70 l0 59 25 -23 c20 -19 25 -33 25 -74 0 -42 3
-52 20 -57 15 -5 20 -15 20 -40 0 -25 5 -35 20 -40 11 -3 20 -12 20 -20 0 -8
9 -16 19 -20 10 -3 21 -15 24 -26 4 -16 12 -20 34 -17 25 3 28 7 31 46 3 40 0
47 -37 81 -28 26 -41 46 -41 64 0 16 -8 32 -20 39 -12 8 -20 24 -20 40 0 17
-8 33 -20 40 -15 10 -20 24 -20 55 0 53 -8 73 -28 73 -13 0 -11 4 6 16 28 19
29 54 2 61 -18 5 -20 14 -20 99 0 83 -2 95 -20 106 -19 12 -20 24 -20 161 0
135 -2 149 -20 164 -17 15 -20 30 -20 100 0 68 -3 86 -19 102 -10 10 -21 34
-25 54 -4 23 -13 37 -26 40 -17 4 -20 14 -20 60 0 47 -3 57 -20 62 -15 5 -20
15 -20 40 0 25 -5 35 -19 40 -14 4 -21 17 -23 43 -3 35 -5 37 -40 40 -26 2
-38 8 -38 19 0 8 -9 17 -20 20 -15 4 -20 14 -20 40 0 26 -5 36 -20 40 -10 3
-22 14 -25 24 -8 26 -65 27 -65 2 -1 -17 -1 -17 -14 0 -12 15 -37 17 -264 17
-242 0 -251 -1 -257 -20z m944 -1854 c6 -26 12 -32 41 -36 30 -4 36 -9 38 -34
3 -20 23 -48 63 -88 37 -36 59 -67 59 -81 0 -13 18 -39 45 -65 25 -24 45 -47
45 -52 0 -6 6 -10 14 -10 8 0 17 -9 21 -19 3 -10 15 -21 25 -24 11 -3 20 -12
20 -20 0 -8 9 -17 20 -20 11 -3 20 -12 20 -21 0 -9 7 -16 16 -16 9 0 18 -9 21
-19 3 -11 13 -21 24 -24 14 -4 19 -14 19 -40 0 -27 5 -37 20 -42 11 -3 20 -12
20 -20 0 -8 9 -17 20 -20 11 -3 20 -12 20 -20 0 -8 9 -17 20 -20 11 -3 20 -13
20 -22 0 -8 9 -17 20 -20 10 -3 22 -14 25 -24 4 -10 12 -19 20 -19 8 0 17 -9
20 -20 3 -11 12 -20 20 -20 8 0 17 -9 20 -20 3 -11 12 -20 20 -20 8 0 17 -9
20 -20 3 -11 12 -20 19 -20 8 0 16 -17 20 -39 4 -27 12 -40 26 -44 11 -3 20
-12 20 -20 0 -9 9 -19 20 -22 11 -3 20 -12 20 -20 0 -8 9 -17 20 -20 11 -3 20
-13 20 -21 0 -8 10 -19 23 -24 21 -8 21 -9 -5 -9 -18 -1 -29 5 -33 19 -3 11
-12 20 -20 20 -8 0 -17 9 -20 20 -3 11 -12 20 -20 20 -8 0 -16 9 -20 19 -3 10
-15 21 -25 24 -11 3 -20 12 -20 20 0 9 -9 19 -20 22 -11 3 -20 12 -20 20 0 8
-9 17 -20 20 -11 3 -20 12 -20 20 0 8 -9 17 -20 20 -11 3 -20 13 -20 22 0 8
-9 17 -20 20 -11 3 -20 12 -20 20 0 8 -9 17 -19 20 -11 3 -21 13 -24 24 -4 14
-14 19 -41 19 -35 0 -36 1 -36 36 0 27 -5 37 -20 41 -13 3 -20 14 -20 28 0 34
-10 55 -26 55 -9 0 -14 11 -14 29 0 16 -7 37 -16 45 -8 9 -29 16 -45 16 -27 0
-29 3 -29 36 0 27 -5 37 -20 41 -11 3 -20 12 -20 20 0 8 -9 17 -19 20 -11 3
-21 13 -24 24 -3 10 -12 19 -20 19 -8 0 -17 9 -20 20 -3 11 -12 20 -20 20 -8
0 -17 9 -20 20 -3 11 -12 20 -21 20 -9 0 -16 7 -16 16 0 9 -9 18 -20 21 -14 4
-20 14 -20 35 0 23 -13 43 -60 88 -35 34 -60 67 -60 79 0 12 -9 30 -20 41 -11
11 -20 27 -20 35 0 26 42 -25 49 -59z m-84 -2186 c3 -11 13 -20 21 -20 9 0 14
-11 14 -29 0 -29 22 -61 41 -61 5 0 9 -16 9 -36 0 -27 5 -37 20 -41 18 -5 20
-14 20 -108 0 -95 -2 -104 -20 -110 -11 -3 -20 -12 -20 -20 0 -8 -9 -16 -19
-20 -11 -3 -23 -15 -26 -26 -5 -14 -15 -19 -40 -19 -25 0 -35 -5 -40 -20 -5
-15 -15 -20 -42 -20 -26 0 -36 -5 -40 -20 -3 -11 -12 -20 -19 -20 -8 0 -19
-10 -24 -22 -8 -22 -9 -22 -9 4 -1 18 5 29 19 33 13 4 20 15 20 32 0 16 -7 27
-20 30 -17 5 -20 14 -20 59 0 42 -4 56 -20 67 l-21 14 21 6 c18 5 20 13 20
100 0 87 2 96 20 102 18 6 20 15 20 79 0 40 3 76 7 79 3 4 32 7 64 7 49 0 59
-3 64 -20z m-487 -516 c12 4 22 14 22 22 0 8 10 14 25 14 20 0 25 -5 25 -25 0
-16 14 -39 38 -62 35 -36 36 -39 20 -55 -10 -10 -18 -29 -18 -43 l0 -25 -105
0 -104 0 -3 58 c-3 54 -4 57 -31 60 -22 3 -30 -1 -34 -17 -5 -20 -11 -21 -157
-19 -83 1 -134 3 -112 5 27 3 40 10 43 24 5 17 15 19 99 19 83 0 95 2 106 20
10 15 24 20 60 20 36 0 51 5 60 19 11 18 12 18 28 -1 12 -15 22 -19 38 -14z"/>
<path d="M3097 5533 c-15 -14 -5 -40 28 -71 38 -37 68 -39 73 -4 6 41 -75 102
-101 75z"/>
<path d="M3216 5524 c-9 -22 11 -54 34 -54 23 0 43 32 34 54 -4 9 -18 16 -34
16 -16 0 -30 -7 -34 -16z"/>
<path d="M2074 5486 c-10 -26 1 -51 22 -54 27 -4 47 21 39 48 -7 24 -53 28
-61 6z"/>
<path d="M1945 5440 c-13 -41 43 -70 64 -33 13 25 -5 53 -34 53 -15 0 -26 -7
-30 -20z"/>
<path d="M3136 5402 c-11 -32 4 -53 33 -50 22 2 26 8 26 33 0 25 -4 31 -27 33
-19 2 -28 -2 -32 -16z"/>
<path d="M3464 3726 c-12 -31 0 -51 31 -51 27 0 30 3 30 30 0 25 -4 30 -28 33
-17 2 -29 -2 -33 -12z"/>
<path d="M3617 3546 c-20 -18 -37 -39 -37 -46 0 -17 106 -120 124 -120 19 0
38 34 30 53 -3 8 -14 17 -25 20 -10 3 -19 12 -19 21 0 9 -8 16 -17 16 -14 0
-13 3 5 20 26 25 27 33 6 54 -21 22 -25 21 -67 -18z"/>
<path d="M3750 3461 c0 -34 31 -51 56 -30 26 22 13 54 -23 57 -31 3 -33 1 -33
-27z"/>
<path d="M3754 3356 c-11 -28 1 -51 27 -54 29 -3 44 18 34 49 -8 23 -53 26
-61 5z"/>
<path d="M3834 3276 c-12 -31 0 -51 31 -51 27 0 30 3 30 30 0 25 -4 30 -28 33
-17 2 -29 -2 -33 -12z"/>
<path d="M3882 3201 c-8 -4 -12 -19 -10 -32 2 -19 9 -24 33 -24 24 0 31 5 33
24 4 23 -11 41 -33 41 -5 0 -16 -4 -23 -9z"/>
<path d="M4075 3060 c-3 -11 -12 -20 -20 -20 -19 0 -29 -38 -15 -55 7 -8 19
-15 28 -15 22 0 84 70 78 87 -3 8 -6 17 -6 19 0 2 -13 4 -29 4 -21 0 -32 -6
-36 -20z"/>
<path d="M4121 2942 c-20 -38 31 -71 59 -37 6 8 9 23 5 35 -8 25 -51 27 -64 2z"/>
<path d="M2273 2614 c-9 -24 10 -49 38 -49 20 0 24 5 24 30 0 25 -4 30 -28 33
-18 2 -29 -2 -34 -14z"/>
<path d="M4485 2530 c-13 -41 43 -70 64 -33 13 25 -5 53 -34 53 -15 0 -26 -7
-30 -20z"/>
<path d="M2122 2381 c-8 -4 -12 -19 -10 -32 2 -19 9 -24 33 -24 33 0 45 25 25
50 -14 17 -29 19 -48 6z"/>
<path d="M4001 2376 c-22 -26 -9 -51 27 -54 32 -3 33 -2 30 30 -2 25 -8 34
-24 36 -11 2 -26 -4 -33 -12z"/>
<path d="M2043 2303 c-7 -2 -13 -18 -13 -34 0 -23 5 -30 26 -35 58 -15 109 33
68 63 -18 13 -57 16 -81 6z"/>
<path d="M3928 2299 c-37 -21 -9 -77 32 -64 25 8 28 60 4 69 -19 7 -15 8 -36
-5z"/>
<path d="M4133 2303 c-12 -4 -19 -63 -9 -63 2 0 11 -3 19 -6 14 -5 47 20 47
36 0 11 -29 40 -38 39 -4 0 -13 -3 -19 -6z"/>
<path d="M4247 2174 c-11 -11 -8 -52 4 -59 5 -4 21 -4 35 -1 20 5 25 12 22 34
-2 20 -9 28 -28 30 -14 2 -29 0 -33 -4z"/>
<path d="M1911 2046 c-21 -25 -4 -58 27 -54 23 2 27 8 27 33 0 23 -5 31 -21
33 -11 2 -26 -4 -33 -12z"/>
<path d="M4284 2046 c-12 -31 0 -51 31 -51 27 0 30 3 30 30 0 25 -4 30 -28 33
-17 2 -29 -2 -33 -12z"/>
<path d="M1792 1971 c-8 -4 -12 -19 -10 -32 2 -19 9 -24 33 -24 24 0 31 5 33
24 4 23 -11 41 -33 41 -5 0 -16 -4 -23 -9z"/>
<path d="M2303 1947 c-38 -39 -42 -62 -13 -77 13 -7 20 -21 20 -39 0 -35 22
-55 50 -46 16 5 20 15 20 52 0 32 -5 50 -17 59 -17 13 -17 13 0 14 15 0 18 7
15 33 -4 45 -34 47 -75 4z"/>
<path d="M4330 1965 c-20 -25 -8 -50 25 -50 24 0 31 5 33 24 6 37 -34 55 -58
26z"/>
</g>
</svg>
